<?xml version="1.0" encoding="utf-8"?>
<!-- Generator: Adobe Illustrator 26.0.1, SVG Export Plug-In . SVG Version: 6.00 Build 0)  -->
<svg version="1.1" id="Ebene_1" xmlns="http://www.w3.org/2000/svg" xmlns:xlink="http://www.w3.org/1999/xlink" x="0px" y="0px"
	 viewBox="0 0 70 70" style="enable-background:new 0 0 70 70;" xml:space="preserve">
<style type="text/css">
	.st0{fill:#868786;}
</style>
<path class="st0" d="M21.69,29.91l1.46-0.15c0.18-0.02,0.26-0.09,0.24-0.27L23.3,28.7c-0.02-0.18-0.12-0.26-0.3-0.24l-3.92,0.4
	c-0.18,0.02-0.24,0.11-0.22,0.29l0.09,0.85c0.02,0.18,0.09,0.26,0.27,0.24l0.85-0.09l3.27,9.22c0.03,0.09,0.09,0.22,0.27,0.2
	l0.9-0.09c0.18-0.02,0.21-0.13,0.23-0.23l1.39-7.21c0.1-0.58,0.16-1.12,0.16-1.78l0.04,0c0.1,0.51,0.27,1.31,0.43,1.74l2.48,6.77
	c0.03,0.09,0.09,0.22,0.31,0.19l0.87-0.09c0.2-0.02,0.23-0.16,0.25-0.25l1.7-9.73l0.9-0.09c0.16-0.02,0.24-0.11,0.22-0.29
	l-0.09-0.85c-0.02-0.18-0.12-0.26-0.27-0.24l-3.67,0.37c-0.16,0.02-0.24,0.11-0.22,0.29l0.08,0.78c0.02,0.18,0.11,0.24,0.27,0.22
	l1.21-0.12l-0.94,6.57c-0.02,0.21-0.05,0.62-0.05,0.89l-0.04,0c-0.07-0.29-0.15-0.57-0.25-0.86l-2.6-7.29
	c-0.06-0.11-0.09-0.22-0.29-0.2l-0.85,0.09c-0.13,0.01-0.26,0.07-0.29,0.23l-1.39,7.43c-0.06,0.28-0.09,0.71-0.12,1.26l-0.04,0
	c-0.08-0.35-0.22-0.84-0.35-1.21L21.69,29.91z"/>
<path class="st0" d="M45.94,41.94c0-0.25-0.12-0.37-0.37-0.37h-1.77c-0.12-0.68-0.19-0.81-0.19-1.96V21.57
	c0-0.25-0.12-0.37-0.37-0.37h-3.98c-0.25,0-0.37,0.12-0.37,0.37v1.18c0,0.25,0.12,0.37,0.37,0.37h1.99v6.06
	c-1.24-0.84-2.49-1.06-3.95-1.06c-3.67,0-5.19,3.73-5.19,8.21c0,3.86,1.46,7.59,4.85,7.59c2.39,0,3.86-1.09,4.73-1.84
	c0.19,0.4,0.31,1.4,1.09,1.4h2.8c0.25,0,0.37-0.12,0.37-0.37V41.94z M41.24,40.01c-0.9,0.84-2.24,1.83-3.86,1.83
	c-2.46,0-2.74-2.95-2.74-5.57c0-3.02,0.31-6.06,2.92-6.06c1.4,0,2.58,0.22,3.67,1.03V40.01z"/>
<path class="st0" d="M45.24,31.11c0.02,0.07,0.08,0.12,0.15,0.13c0.2,0.02,1.3-0.61,2.8-0.49c1.59,0.14,1.94,0.89,1.83,2.19
	l-0.07,0.81c-1.39-0.07-5.89-0.39-6.21,3.4c-0.17,2,0.87,3.26,2.65,3.42c1.86,0.16,3.07-1.01,3.36-1.23
	c0.08,0.37,0.19,1.21,0.75,1.26l1.91,0.16c0.18,0.02,0.28-0.07,0.29-0.25l0.07-0.85c0.02-0.18-0.07-0.28-0.25-0.29l-1.05-0.09
	c-0.15-0.65-0.2-0.85-0.08-2.27l0.37-4.31c0.16-1.88-0.61-3.22-3.19-3.43c-1.44-0.12-3.56,0.35-3.59,0.73
	c-0.01,0.11,0.01,0.18,0.04,0.3L45.24,31.11z M49.58,38.04c-0.39,0.28-1.51,1.27-2.68,1.17c-1.12-0.1-1.53-1.15-1.45-2.04
	c0.2-2.36,3.39-2.09,4.38-2.02L49.58,38.04z"/>
<path class="st0" d="M42.01,45.84c0-0.8-0.64-1.44-1.44-1.44c-0.78,0-1.44,0.64-1.44,1.44c0,0.8,0.66,1.44,1.44,1.44
	C41.37,47.28,42.01,46.64,42.01,45.84"/>
<path class="st0" d="M46.84,46.62c0-1.21-0.96-2.18-2.18-2.18c-1.18,0-2.18,0.96-2.18,2.18c0,1.21,0.99,2.18,2.18,2.18
	C45.88,48.81,46.84,47.84,46.84,46.62"/>
</svg>
