<svg xmlns="http://www.w3.org/2000/svg" version="1.1" xmlns:xlink="http://www.w3.org/1999/xlink" xmlns:svgjs="http://svgjs.dev/svgjs" width="1000" height="1000" viewBox="0 0 1000 1000"><g transform="matrix(1,0,0,1,-0.1312263681010677,0.35830499764836077)"><svg viewBox="0 0 279 247" data-background-color="#636365" preserveAspectRatio="xMidYMid meet" height="885" width="1000" xmlns="http://www.w3.org/2000/svg" xmlns:xlink="http://www.w3.org/1999/xlink"><g id="tight-bounds" transform="matrix(1,0,0,1,0.03661222410929099,-0.10000136791481395)"><svg viewBox="0 0 278.92677561919055 247.2" height="247.2" width="278.92677561919055"><g><svg viewBox="0 0 395.52 350.531223769946" height="247.2" width="278.92677561919055"><g transform="matrix(1,0,0,1,0,216.6423589050811)"><svg viewBox="0 0 395.52 133.88886486486487" height="133.88886486486487" width="395.52"><g id="textblocktransform"><svg viewBox="0 0 395.52 133.88886486486487" height="133.88886486486487" width="395.52" id="textblock"><g><svg viewBox="0 0 395.52 133.88886486486487" height="133.88886486486487" width="395.52"><g transform="matrix(1,0,0,1,0,0)"><svg width="395.52" viewBox="0.9000000357627869 -38.75 147.98001098632812 50.099998474121094" height="133.88886486486487" data-palette-color="#d2d6dc"><path d="M24.15-18.25Q26.2-18.25 27.18-17.53 28.15-16.8 28.4-15.78 28.65-14.75 28.65-13.15L28.65-13.15Q28.65-8.95 26.35-5.73 24.05-2.5 20.35-0.73 16.65 1.05 12.5 1.05L12.5 1.05Q6.5 1.05 3.7-2.3 0.9-5.65 0.9-10.5L0.9-10.5Q0.9-16.25 3.98-21.48 7.05-26.7 11.58-29.88 16.1-33.05 20.1-33.05L20.1-33.05Q25.7-33.05 28.2-30.83 30.7-28.6 30.7-24.35L30.7-24.35Q30.7-22.85 29.58-21.8 28.45-20.75 26.55-20.75L26.55-20.75Q25.05-20.75 24.53-21.55 24-22.35 24-23.6L24-23.6 24.05-25.2Q24.05-26.1 23.05-26.95 22.05-27.8 21.2-27.8L21.2-27.8Q18.4-27.8 15.05-25.28 11.7-22.75 9.4-18.48 7.1-14.2 7.1-9.2L7.1-9.2Q7.1-6.9 8.9-5.45 10.7-4 13.45-4L13.45-4Q15.4-4 17.55-5.18 19.7-6.35 21.18-8.38 22.65-10.4 22.65-12.7L22.65-12.7Q21.95-12.6 20.6-12.25L20.6-12.25Q18.65-11.75 17.28-11.5 15.9-11.25 14.55-11.25L14.55-11.25Q12.95-11.25 12.18-11.68 11.4-12.1 11.4-13.2L11.4-13.2Q11.4-13.95 11.78-14.95 12.15-15.95 12.7-16.4L12.7-16.4Q15.2-17.05 18.48-17.65 21.75-18.25 24.15-18.25L24.15-18.25ZM51.25-2.6Q51.35-1.3 51.6-0.25L51.6-0.25Q51.5 0.05 50.72 0.35 49.95 0.65 49.4 0.65L49.4 0.65Q47.6 0.65 46.82 0.13 46.05-0.4 46.05-1.45L46.05-1.45Q46.05-2.45 46.25-3.45L46.25-3.45Q45.15-1.95 43.02-0.98 40.9 0 39.6 0L39.6 0Q36.25 0 34.02-1.95 31.8-3.9 31.8-8.2L31.8-8.2Q31.8-12.25 33.72-15.83 35.65-19.4 39.05-21.58 42.45-23.75 46.6-23.75L46.6-23.75Q47.4-23.75 48.7-23.33 50-22.9 51.32-21.88 52.65-20.85 53.55-19.25L53.55-19.25Q53.95-19.25 54.5-18.85 55.05-18.45 55.05-18.05L55.05-18.05Q55.05-17.6 54.9-17.15L54.9-17.15 51.25-2.6ZM49-16.6Q48.7-17.7 47.82-18.45 46.95-19.2 46.25-19.2L46.25-19.2Q43.95-19.2 41.92-17.57 39.9-15.95 38.65-13.55 37.4-11.15 37.4-9L37.4-9Q37.4-6.9 37.9-5.55 38.4-4.2 39.85-4.2L39.85-4.2Q41.1-4.2 42.72-4.95 44.35-5.7 45.62-6.98 46.9-8.25 47.3-9.65L47.3-9.65 49-16.6ZM62.7 11.35Q60.4 11.35 58.37 10.35 56.35 9.35 54.97 7.78 53.6 6.2 53 4.6L53 4.6Q53.05 3.7 53.87 2.83 54.7 1.95 56.75 1.95L56.75 1.95Q57.4 1.95 57.87 2.45 58.35 2.95 58.95 4.05L58.95 4.05Q59.75 5.55 60.62 6.38 61.5 7.2 63.05 7.2L63.05 7.2Q64.8 7.2 66.42 5.83 68.05 4.45 69.22 2.1 70.4-0.25 70.84-3.1L70.84-3.1Q69.75-1.6 68.32-0.8 66.9 0 65.65 0L65.65 0Q61.65 0 59.32-1.78 57-3.55 57-8.1L57-8.1Q57-12.2 59.27-15.75 61.55-19.3 65.34-21.4 69.15-23.5 73.5-23.5L73.5-23.5Q76.34-23.5 77.72-22.35 79.09-21.2 79.4-19.45L79.4-19.45Q80.25-19.05 80.3-18.65L80.3-18.65Q80.3-18.5 80.09-17.6L80.09-17.6Q79.15-13.5 76.09-1.4L76.09-1.4 75.55 0.8Q74.3 5.65 70.77 8.5 67.25 11.35 62.7 11.35L62.7 11.35ZM74-18.35Q73.59-19.05 73.22-19.25 72.84-19.45 72.09-19.45L72.09-19.45Q69.75-19.45 67.55-17.93 65.34-16.4 64-13.98 62.65-11.55 62.65-9L62.65-9Q62.65-7.15 63.32-5.8 64-4.45 65.5-4.25L65.5-4.25Q67.5-4.6 69.27-6.05 71.05-7.5 71.7-9.8L71.7-9.8 74-18.35ZM96.64-35.85L94.54-27.2Q88.89-3.45 87.89-0.05L87.89-0.05Q87.79 0.25 86.87 0.73 85.94 1.2 85.59 1.2L85.59 1.2Q84.19 1.2 82.89 0.5 81.59-0.2 81.49-1.75L81.49-1.75Q81.54-1.85 81.99-2.8 82.44-3.75 82.89-5.5L82.89-5.5Q84.04-9.8 85.52-15.7 86.99-21.6 87.49-23.6L87.49-23.6 89.84-33.15Q89.79-33.55 89.79-37.3L89.79-37.3Q89.94-37.95 90.92-38.35 91.89-38.75 92.69-38.75L92.69-38.75Q93.94-38.75 95.27-37.9 96.59-37.05 96.64-35.85L96.64-35.85ZM101.09 1.65Q99.69 1.65 98.67 0.8 97.64-0.05 97.64-1.2L97.64-1.2Q97.64-2.9 99.09-4.15 100.54-5.4 102.24-5.4L102.24-5.4Q103.74-5.4 104.72-4.45 105.69-3.5 105.69-2.2L105.69-2.2Q105.69-0.65 104.29 0.5 102.89 1.65 101.09 1.65L101.09 1.65ZM117.59-29.7Q117.59-31.25 118.56-32.45 119.54-33.65 121.29-33.65L121.29-33.65Q123.14-33.65 124.51-32.5 125.89-31.35 125.89-29.9L125.89-29.9Q125.89-28.45 124.49-27.4 123.09-26.35 121.24-26.35L121.24-26.35Q119.44-26.35 118.51-27.28 117.59-28.2 117.59-29.7L117.59-29.7ZM122.84-20.85Q120.19-10.05 118.79-4.6L118.79-4.6Q118.59-3.8 118.59-2.85L118.59-2.85 118.64-1.45Q118.64-0.6 118.11-0.25 117.59 0.1 115.89 0.15L115.89 0.15Q114.24 0.15 113.39-0.2 112.54-0.55 112.54-1.7L112.54-1.7Q112.54-2.25 113.81-7.55 115.09-12.85 117.29-21.35L117.29-21.35 116.14-22.85Q115.99-23 115.99-23.2L115.99-23.2Q115.99-23.7 117.09-24.03 118.19-24.35 120.14-24.35L120.14-24.35Q121.84-24.35 122.31-23.38 122.79-22.4 122.84-20.85L122.84-20.85ZM135.24 1.05Q130.84 1.05 128.38-1.95 125.94-4.95 125.94-9.6L125.94-9.6Q125.94-13.5 127.81-16.95 129.69-20.4 132.94-22.5 136.19-24.6 140.09-24.6L140.09-24.6Q143.94-24.6 146.41-22.08 148.88-19.55 148.88-14.65L148.88-14.65Q148.88-11.2 146.99-7.5 145.09-3.8 141.91-1.38 138.74 1.05 135.24 1.05L135.24 1.05ZM135.99-2.95Q137.59-2.95 139.21-4.95 140.84-6.95 141.88-10 142.94-13.05 142.94-15.95L142.94-15.95Q142.94-20.4 139.24-20.4L139.24-20.4Q137.19-20.4 135.49-18.45 133.78-16.5 132.78-13.63 131.78-10.75 131.78-8.25L131.78-8.25Q131.78-6.8 132.44-5.58 133.09-4.35 134.06-3.65 135.03-2.95 135.99-2.95L135.99-2.95Z" opacity="1" transform="matrix(1,0,0,1,0,0)" fill="#d2d6dc" class="undefined-text-0" data-fill-palette-color="primary" id="text-0"></path></svg></g></svg></g></svg></g></svg></g><g transform="matrix(1,0,0,1,109.46401672496316,0)"><svg viewBox="0 0 176.59196655007366 185.03441124324326" height="185.03441124324326" width="176.59196655007366"><g><svg xmlns="http://www.w3.org/2000/svg" data-name="Layer 1" viewBox="14.119999885559082 9.420000076293945 61.7599983215332 71.16000366210938" x="8" y="0" height="185.03441124324326" width="160.59196655007366" class="icon-icon-0" data-fill-palette-color="accent" id="icon-0"><path d="M45.13 9.42L14.25 27.1l-0.13 35.58 30.75 17.9L75.75 62.9l0.13-35.58Zm-29 52.11l0.12-33.27L45.12 11.73 73.87 28.47h0L45 45l-0.12 33.27Z" fill="#97978d" data-fill-palette-color="accent"></path></svg></g></svg></g><g><rect width="51.16740453455844" height="12.074236006822055" y="171.9601752364212" x="286.05598327503685" fill="#97978d" data-fill-palette-color="accent"></rect><rect width="51.16740453455844" height="12.074236006822055" y="171.9601752364212" x="58.296612190404716" fill="#97978d" data-fill-palette-color="accent"></rect><rect width="51.16740453455844" height="12.074236006822055" y="147.81170322277708" x="286.05598327503685" fill="#97978d" data-fill-palette-color="accent"></rect><rect width="51.16740453455844" height="12.074236006822055" y="147.81170322277708" x="58.296612190404716" fill="#97978d" data-fill-palette-color="accent"></rect></g></svg></g><defs></defs></svg><rect width="278.92677561919055" height="247.2" fill="none" stroke="none" visibility="hidden"></rect></g></svg></g></svg>